<svg width="100" height="100" viewBox="0 0 100 100" fill="none" xmlns="http://www.w3.org/2000/svg">
    <g clip-path="url(#clip0_715_168)">
        <path d="M90 0H10C4.47715 0 0 4.47715 0 10V90C0 95.5229 4.47715 100 10 100H90C95.5229 100 100 95.5229 100 90V10C100 4.47715 95.5229 0 90 0Z" fill="#121417"/>
        <path d="M34.497 56.1957C34.497 60.4243 25.1001 60.4243 25.1001 56.1957V12.5C30.7383 12.5 34.497 19.5477 50.4718 19.5477C66.4466 19.5477 69.2657 12.4998 74.9039 12.5V56.1957C74.9039 60.4243 65.5069 60.4243 65.5069 56.1957V30.824C65.5069 22.3668 56.11 22.3668 56.11 30.824V56.1957C56.11 60.4243 43.894 60.4243 43.894 56.1957V30.824C43.894 22.3668 34.497 22.3668 34.497 30.824V56.1957Z" fill="white"/>
        <path d="M65.5061 73.58V36.4621C65.5061 31.2938 74.903 31.294 74.903 36.4621V73.58C74.903 92.3739 43.8931 91.9041 43.8931 73.58V59.1258C43.8924 59.0891 43.8924 59.052 43.8931 59.0147V59.1258C43.9907 63.6536 56.0407 64.0547 56.1092 59.0147V73.58C56.1092 78.2784 65.5061 78.2784 65.5061 73.58Z" fill="#D72323"/>
    </g>
    <defs>
        <clipPath id="clip0_715_168">
            <rect width="100" height="100" fill="white"/>
        </clipPath>
    </defs>
</svg>
